<svg width="78" height="78" viewBox="0 0 78 78" xmlns="http://www.w3.org/2000/svg">
    <g id="Canvas" fill="none">
        <g id="004-file">
            <g id="Group">
                <g id="Group_2">
                    <path d="M 76.7002 0L 1.29995 0C 0.58104 0 0 0.58241 0 1.29995L 0 76.6999C 0 77.4176 0.58104 78 1.29995 78L 76.7001 78C 77.419 78 78 77.4176 78 76.7001L 78 1.29995C 78.0002 0.58241 77.4191 0 76.7002 0ZM 44.2 59.7999C 44.2 66.2505 38.9519 71.5 32.5 71.5C 26.0481 71.5 20.8 66.2505 20.8 59.7999C 20.8 59.0824 21.381 58.5 22.0999 58.5C 22.8189 58.5 23.3999 59.0824 23.3999 59.7999C 23.3999 64.818 27.4832 68.8999 32.4999 68.8999C 37.5166 68.8999 41.5998 64.8178 41.5998 59.7999L 41.5998 28.5999C 41.5998 27.8824 42.1809 27.3 42.8998 27.3C 43.6187 27.3 44.1997 27.8824 44.1997 28.5999L 44.1997 59.7999L 44.2 59.7999ZM 59.8001 48.0999C 66.252 48.0999 71.5001 53.3494 71.5001 59.7999C 71.5001 66.2505 66.252 71.5 59.8001 71.5C 53.3481 71.5 48.1 66.2505 48.1 59.7999C 48.1 59.0824 48.6811 58.5 49.4 58.5C 50.1189 58.5 50.6999 59.0824 50.6999 59.7999C 50.6999 64.818 54.7832 68.8999 59.7999 68.8999C 64.8166 68.8999 68.8999 64.8178 68.8999 59.7999C 68.8999 54.7819 64.8166 50.7 59.7999 50.7C 53.348 50.7 48.0999 45.4505 48.0999 39C 48.0999 32.5495 53.348 27.3 59.7999 27.3C 66.2518 27.3 71.4999 32.5495 71.4999 39C 71.4999 39.7175 70.9189 40.2999 70.2 40.2999C 69.4811 40.2999 68.9 39.7175 68.9 39C 68.9 33.9819 64.8168 29.9001 59.8001 29.9001C 54.7834 29.9001 50.7001 33.9821 50.7001 39C 50.7001 44.0179 54.7834 48.0999 59.8001 48.0999Z"
                    fill="#fff" id="Vector" />
                </g>
            </g>
        </g>
    </g>
</svg>
