<svg width="90" height="80" viewBox="0 0 90 80" xmlns="http://www.w3.org/2000/svg">
    <g id="Canvas" fill="none">
        <path d="M 75.7782 26.5474C 74.2039 25.975 72.5581 25.4025 70.8408 24.9016C 71.2701 23.1843 71.6279 21.4669 71.9141 19.8211C 73.4168 10.3757 71.771 3.72093 67.1914 1.1449C 65.8318 0.357782 64.3292 2.72966e-07 62.6118 2.72966e-07C 57.6029 2.72966e-07 51.2343 3.72093 44.7943 9.94633C 38.3542 3.72093 31.9857 2.72966e-07 26.9767 2.72966e-07C 25.2594 2.72966e-07 23.7567 0.357782 22.3971 1.1449C 17.8175 3.79249 16.1717 10.4472 17.6744 19.8211C 17.9606 21.4669 18.3184 23.1843 18.7478 24.9016C 17.0304 25.4025 15.3846 25.9034 13.8104 26.5474C 4.86583 29.9821 -1.70604e-08 34.7048 -1.70604e-08 40C -1.70604e-08 45.2952 4.93739 50.0179 13.8104 53.4526C 15.3846 54.025 17.0304 54.5975 18.7478 55.0984C 18.3184 56.8157 17.9606 58.5331 17.6744 60.1789C 16.1717 69.6243 17.8175 76.2791 22.3971 78.8551C 23.7567 79.6422 25.2594 80 26.9767 80C 32.0572 80 38.4258 76.2791 44.7943 70.0537C 51.2343 76.2791 57.6029 80 62.6118 80C 64.3292 80 65.8318 79.6422 67.1914 78.8551C 71.771 76.2075 73.4168 69.5528 71.9141 60.1789C 71.6279 58.5331 71.2701 56.8157 70.8408 55.0984C 72.5581 54.5975 74.2039 54.0966 75.7782 53.4526C 84.7227 50.0179 89.5885 45.2952 89.5885 40C 89.5885 34.7048 84.7227 29.9821 75.7782 26.5474ZM 65.1878 4.72272C 68.1216 6.44007 69.1234 11.7352 67.907 19.2487C 67.6923 20.7513 67.3345 22.3256 66.9052 23.9714C 63.1843 23.1127 59.2487 22.5402 55.0984 22.1825C 52.6655 18.7478 50.161 15.6708 47.6565 12.8801C 52.9517 7.65653 58.3184 4.07871 62.6834 4.07871C 63.6136 4.07871 64.4723 4.29338 65.1878 4.72272ZM 57.1735 47.1556C 55.8855 49.4454 54.3828 51.7352 52.8086 54.025C 50.161 54.2397 47.5134 54.3113 44.7943 54.3113C 42.0036 54.3113 39.356 54.2397 36.78 54.025C 35.2057 51.7352 33.7746 49.4454 32.4866 47.1556C 31.127 44.7943 29.839 42.3614 28.6941 40C 29.839 37.6386 31.127 35.2057 32.4866 32.8444C 33.7746 30.5546 35.2773 28.2648 36.8515 25.975C 39.4991 25.7603 42.1467 25.6887 44.8658 25.6887C 47.6565 25.6887 50.3041 25.7603 52.8801 25.975C 54.4544 28.2648 55.8855 30.5546 57.1735 32.8444C 58.5331 35.2057 59.8211 37.6386 60.966 40C 59.7495 42.3614 58.5331 44.7227 57.1735 47.1556ZM 63.1127 44.7943C 64.186 47.2987 65.0447 49.7317 65.8318 52.1646C 63.3989 52.737 60.8229 53.1664 58.1038 53.5242C 58.9624 52.1646 59.8927 50.7335 60.6798 49.2308C 61.5385 47.7281 62.3256 46.2254 63.1127 44.7943ZM 44.7943 64.1861C 43.0769 62.3256 41.4311 60.322 39.8569 58.2469C 41.5027 58.3184 43.1485 58.39 44.7943 58.39C 46.4401 58.39 48.0859 58.3184 49.7317 58.2469C 48.1574 60.322 46.5116 62.3256 44.7943 64.1861ZM 31.4848 53.4526C 28.7657 53.0948 26.1896 52.6655 23.7567 52.093C 24.5438 49.7317 25.4025 47.2272 26.4758 44.7227C 27.263 46.1538 28.0501 47.6565 28.9088 49.0877C 29.7674 50.6619 30.6261 52.0215 31.4848 53.4526ZM 26.4758 35.2057C 25.4025 32.7013 24.5438 30.2683 23.7567 27.8354C 26.1896 27.263 28.7657 26.8336 31.4848 26.4758C 30.6261 27.8354 29.6959 29.2665 28.9088 30.7692C 28.0501 32.2719 27.263 33.7746 26.4758 35.2057ZM 44.7943 15.814C 46.5116 17.6744 48.1574 19.678 49.7317 21.7531C 48.0859 21.6816 46.4401 21.61 44.7943 21.61C 43.1485 21.61 41.5027 21.6816 39.8569 21.7531C 41.4311 19.678 43.0769 17.6744 44.7943 15.814ZM 60.6798 30.8408L 58.1038 26.5474C 60.8229 26.9052 63.3989 27.3345 65.8318 27.907C 65.0447 30.2683 64.186 32.7728 63.1127 35.2773C 62.3256 33.7746 61.5385 32.2719 60.6798 30.8408ZM 21.6816 19.2487C 20.4651 11.7352 21.4669 6.44007 24.4007 4.72272C 25.1163 4.29338 25.975 4.07871 26.9052 4.07871C 31.1986 4.07871 36.5653 7.58497 41.932 12.8801C 39.4275 15.5993 36.9231 18.7478 34.4902 22.1825C 30.3399 22.5402 26.4043 23.1843 22.6834 23.9714C 22.254 22.3256 21.9678 20.7513 21.6816 19.2487ZM 4.00716 40C 4.00716 36.6369 8.08587 33.059 15.2415 30.4114C 16.6726 29.839 18.2469 29.3381 19.8211 28.9088C 20.966 32.4866 22.3971 36.2791 24.1145 40.0716C 22.3971 43.864 20.8945 47.585 19.8211 51.1628C 9.94633 48.3005 4.00716 44.0072 4.00716 40ZM 24.4007 75.2773C 21.4669 73.5599 20.4651 68.2648 21.6816 60.7513C 21.8962 59.2487 22.254 57.6744 22.6834 56.0286C 26.4043 56.8873 30.3399 57.4598 34.4902 57.8175C 36.9231 61.2522 39.4275 64.3292 41.932 67.1199C 36.6368 72.3435 31.2701 75.9213 26.9052 75.9213C 25.975 75.9213 25.1163 75.7066 24.4007 75.2773ZM 67.907 60.7513C 69.1234 68.2648 68.1216 73.5599 65.1878 75.2773C 64.4723 75.7066 63.6136 75.9213 62.6834 75.9213C 58.39 75.9213 53.0233 72.415 47.6565 67.1199C 50.161 64.4007 52.6655 61.2522 55.0984 57.8175C 59.2487 57.4598 63.1843 56.8157 66.9052 56.0286C 67.3345 57.6744 67.6208 59.2487 67.907 60.7513ZM 74.347 49.5886C 72.9159 50.161 71.3417 50.6619 69.7674 51.0912C 68.6225 47.5134 67.1914 43.7209 65.4741 39.9284C 67.1914 36.136 68.6941 32.415 69.7674 28.8372C 79.6422 31.6995 85.5814 35.9928 85.5814 40C 85.5814 43.3631 81.4311 46.941 74.347 49.5886Z"
        fill="#fff" id="Vector" />
    </g>
</svg>
