<svg width="107" height="80" viewBox="0 0 107 80" xmlns="http://www.w3.org/2000/svg">
    <g id="Canvas" fill="none">
        <path fillRule="evenodd" clipRule="evenodd" d="M -1.54372e-08 33.359C -1.54372e-08 33.958 0.176354 34.3533 0.275181 34.7375C 0.919256 37.2363 2.30368 39.3806 3.94624 41.3367C 6.2857 44.1243 9.15082 46.3683 12.0858 48.4786C 14.6314 50.3086 17.229 52.0977 19.7849 53.9141C 20.2236 54.2259 20.6385 54.5846 21.1148 54.9671C 20.705 55.1886 20.3642 55.3837 20.0098 55.5635C 16.6369 57.2742 13.3918 59.1919 10.4006 61.5152C 8.5979 62.9158 6.85481 64.4042 5.62374 66.3492C 3.64295 69.4775 2.94179 72.8104 4.41822 76.369C 4.84931 77.4084 5.50702 78.3063 6.43479 78.97C 6.73553 79.1847 7.07291 79.3977 7.42476 79.4812C 8.32613 79.6933 9.24453 79.8322 10.157 80L 12.7409 79.9983C 15.5984 79.7436 18.1994 78.7647 20.5499 77.1425C 24.2236 74.6071 26.6985 71.2079 27.7626 66.845C 28.5361 63.674 28.5677 60.4997 27.6561 57.3432C 27.5717 57.0501 27.4652 56.763 27.3545 56.4793C 27.2437 56.1956 27.1134 55.9196 26.96 55.566L 32.818 52.1974L 32.9058 52.2724C 32.7993 52.6208 32.686 52.9684 32.5897 53.3203C 31.8937 55.8625 31.4311 58.449 31.5972 61.0875C 31.7744 63.899 32.5591 66.5306 34.205 68.8795C 35.5358 70.7793 38.7067 70.85 40.121 68.9434C 40.6228 68.2661 41.1092 67.5581 41.4747 66.8024C 42.4298 64.8301 43.3141 62.8229 44.2265 60.8294L 44.3858 60.4647C 44.3203 61.4087 44.2436 62.2377 44.2086 63.0675C 44.1541 64.3633 44.2299 65.6514 44.673 66.8842C 45.0521 67.9389 45.697 68.727 46.9051 68.8658C 47.7315 68.9604 48.39 68.5821 48.9975 68.1025C 49.9465 67.3536 50.7176 66.4284 51.2901 65.3771C 52.9096 62.4029 54.5726 59.4467 56.0406 56.3975C 57.6286 53.0996 59.0173 49.7054 60.492 46.3513L 60.7357 45.7566C 61.0841 47.1257 61.3269 48.4667 61.7742 49.7361C 62.2939 51.2091 62.9371 52.6472 63.6374 54.0453C 63.9688 54.7055 63.9305 55.1341 63.4713 55.6878C 61.5493 58.0051 59.6605 60.3506 57.77 62.6934C 57.3517 63.2106 56.9351 63.7371 56.5867 64.3019C 56.3762 64.6453 56.2365 65.0636 56.1777 65.464C 56.0644 66.229 56.5372 66.9668 57.356 67.1432C 58.104 67.3042 58.9006 67.3638 59.6631 67.3076C 62.3015 67.1134 64.6972 66.1873 66.8152 64.618C 69.5593 62.5852 70.4403 59.8113 69.7757 56.5236C 69.596 55.6316 69.2782 54.7643 68.9689 53.9047C 68.8301 53.5171 68.8207 53.2453 69.0737 52.8841C 71.2675 49.7514 73.1418 46.428 74.8849 43.0278C 74.9539 42.8941 75.0246 42.7603 75.1456 42.6172C 75.7104 45.5564 76.5607 48.3892 78.084 50.9595C 77.307 51.7084 76.5377 52.3874 75.8416 53.1354C 74.309 54.7831 72.9799 56.5722 72.2864 58.754C 71.9882 59.6946 71.7591 60.6505 71.892 61.6549C 72.0981 63.2148 73.3761 64.2287 74.9104 63.8734C 78.1939 63.1135 81.0283 61.5663 83.0994 58.8256C 84.4932 56.9803 84.6201 54.9219 84.0366 52.7656C 83.8764 52.1795 83.6864 51.6027 83.4819 50.9305C 84.2921 50.6792 85.0819 50.3776 85.8989 50.1911C 90.1408 49.2232 94.3367 49.3919 98.4243 50.9237C 100.811 51.8183 102.739 53.3152 103.882 55.67C 105.278 58.5487 104.506 61.2801 101.793 63.0998C 101.54 63.2694 101.25 63.4031 101.041 63.6153C 100.912 63.7456 100.834 64.0063 100.866 64.1861C 100.884 64.2909 101.161 64.4221 101.32 64.4203C 102.212 64.4135 102.935 63.9458 103.63 63.4653C 105.369 62.2615 106.639 60.6419 106.912 58.5095L 106.966 58.3493L 106.9 56.9607C 106.874 56.8806 106.92 56.8013 106.914 56.7409C 106.544 53.6355 104.886 51.227 102.473 49.3391C 99.6784 47.1538 96.3788 46.2542 92.8892 46.1119C 90.0454 45.996 87.2501 46.4186 84.5699 47.3924C 83.8057 47.6693 83.0483 47.9973 82.2798 48.3065C 82.1767 48.1199 82.066 47.941 81.9748 47.7562C 81.1859 46.1409 80.23 44.5971 80.0187 42.745C 79.8688 41.4296 79.6848 40.1159 79.9974 38.8149C 80.2982 37.5634 80.6901 36.3332 81.059 35.0987C 81.249 34.4632 81.1152 34.107 80.5086 33.8208C 80.2973 33.7211 80.0673 33.6342 79.839 33.601C 78.3481 33.3846 76.8776 33.5081 75.4335 33.9281C 74.9224 34.0772 74.5509 34.3635 74.4376 34.9292C 74.3729 35.2538 74.2408 35.5647 74.1488 35.8851C 73.7714 37.2167 73.5039 38.5738 72.8939 39.8424C 71.3655 43.0244 69.6207 46.0863 67.835 49.1261C 67.6416 49.4541 67.438 49.7761 67.1943 50.174C 66.5673 48.862 65.8985 47.6846 65.6957 46.3044C 65.4666 44.7437 65.2859 43.1854 65.6744 41.6366C 65.9632 40.4814 66.3407 39.3474 66.6883 38.2075C 66.8527 37.6656 66.7769 37.3811 66.2861 37.0957C 66.0382 36.9517 65.7579 36.8239 65.4785 36.7822C 63.9322 36.553 62.4089 36.6731 60.9171 37.1553C 60.4545 37.3053 60.2117 37.6043 60.0703 38.0814C 59.6545 39.4888 59.3001 40.9303 58.7165 42.2687C 56.3532 47.6872 53.9217 53.0775 51.4928 58.4669C 50.9859 59.5923 50.3921 60.6786 49.8204 61.7742C 49.6756 62.0519 49.4643 62.2964 49.2837 62.5571C 49.1389 62.3859 49.0827 62.2683 49.0835 62.1507C 49.0878 61.4581 49.0051 60.745 49.1372 60.0754C 49.5368 58.0495 49.9968 56.0346 50.4816 54.0274C 50.882 52.3695 51.348 50.7269 51.7919 49.0801C 51.941 48.5289 51.9435 48.0135 51.5474 47.55C 50.882 46.7739 49.4916 46.6035 48.6669 47.2015L 48.3023 47.4077L 48.373 46.8199C 48.5468 45.5598 48.5817 44.3041 48.2358 43.0628C 47.8047 41.5156 46.7006 40.6253 45.0955 40.6747C 44.3475 40.6977 43.562 40.8255 42.8694 41.0982C 39.9566 42.2398 37.7168 44.2615 35.8101 46.6938C 35.6372 46.9144 35.4088 47.1155 35.1652 47.251C 32.7005 48.6175 30.2281 49.967 27.7566 51.3216L 25.0056 52.8287C 24.2679 52.125 23.5974 51.3949 22.8366 50.7755C 20.5133 48.8807 18.1525 47.0329 15.8131 45.1594C 13.7394 43.499 11.7305 41.7695 10.1936 39.5706C 9.05029 37.9349 8.31335 36.1449 8.24264 34.1224C 8.15318 31.5452 8.88416 29.1904 10.1962 26.9984C 11.8745 24.1937 14.1637 21.9429 16.6804 19.9042C 19.3427 17.7487 22.2223 15.9187 25.2067 14.248C 29.3821 11.9111 33.6768 9.8426 38.2816 8.47692C 43.0031 7.07631 47.7937 6.27463 52.735 6.83351C 54.6774 7.05331 56.5636 7.49803 58.2957 8.44796C 59.6222 9.17467 60.7101 10.1263 61.2162 11.6138C 61.7154 13.0775 61.7001 14.5607 61.3542 16.0474C 60.6513 19.0582 59.0028 21.5399 56.9283 23.7575C 53.5256 27.3928 49.3749 29.8677 44.7019 31.5026C 42.0055 32.4457 39.2315 33.0378 36.3826 33.2772C 34.0576 33.4723 31.7812 33.2662 29.5798 32.4577C 28.1221 31.9218 26.8527 31.1022 25.832 29.9129C 25.6497 29.6999 25.4163 29.469 25.0764 29.6684C 24.7432 29.8643 24.6845 30.1813 24.7961 30.5024C 24.9826 31.0358 25.1547 31.5912 25.4453 32.0683C 26.1754 33.2653 27.2403 34.1335 28.4126 34.8781C 30.6643 36.3102 33.181 36.7915 35.7905 36.9032C 39.7504 37.0744 43.614 36.4831 47.4231 35.4208C 52.8611 33.9043 57.5894 31.2257 61.3814 27.0001C 64.5388 23.4815 66.7939 19.5106 67.2769 14.7158C 67.5129 12.3755 67.2616 10.0829 66.166 7.94786C 64.9775 5.63481 63.0879 3.91472 60.8285 2.72965C 57.5383 1.00445 53.9874 0 50.3223 0L 46.6503 0C 42.2117 0 37.9204 1.27196 33.7492 2.78929C 30.5919 3.93857 27.4959 5.29488 24.4902 6.79602C 17.9447 10.0667 11.8489 14.0104 6.84203 19.433C 4.34751 22.1346 2.23552 25.1155 1.02064 28.6256C 0.665375 29.653 0.328002 30.7546 0.0741198 31.817L -1.54372e-08 33.359ZM 23.7916 62.4983C 23.5079 66.2972 21.7861 69.377 18.9721 71.8715C 17.3892 73.2738 15.5737 74.2723 13.4591 74.6233C 12.6924 74.7503 11.9077 74.7809 11.164 74.4632C 10.1033 74.0099 9.8656 73.0685 9.84516 72.0658C 9.81364 70.4675 10.3734 69.0226 11.141 67.6475C 12.1429 65.855 13.6116 64.4885 15.1801 63.2123C 17.6507 61.2008 20.331 59.4986 23.076 57.8918L 23.283 57.8066C 23.7073 59.3742 23.9092 60.9222 23.7916 62.4983ZM 45.225 45.9884C 45.0248 47.2016 44.7743 48.4156 44.4199 49.5913C 43.1948 53.661 41.6213 57.6047 39.9199 61.4956C 39.6055 62.2155 39.148 62.8724 38.7502 63.5548C 38.6888 63.6604 38.5977 63.7516 38.5091 63.8393C 38.0167 64.3258 37.5498 64.3002 37.301 63.6638C 37.0114 62.9243 36.8333 62.1329 36.6799 61.3499C 36.5769 60.8243 36.6016 60.2722 36.5692 59.7338C 36.6024 55.9051 37.7704 52.4257 39.7521 49.1866C 40.5691 47.8507 41.4585 46.5779 42.8174 45.7328C 43.2349 45.4729 43.7034 45.2642 44.1763 45.1313C 44.9004 44.9277 45.3451 45.2625 45.225 45.9884ZM 59.8479 64.6189L 65.1036 58.4822C 65.3226 60.7612 61.4487 65.3106 59.8479 64.6189ZM 76.6339 60.4894C 76.2625 60.7024 75.8578 60.8558 75.477 61.0526C 75.1285 61.2332 75.0135 61.0509 75.0033 60.751C 74.9965 60.5474 75.0263 60.3344 75.0825 60.1367C 75.7922 57.6337 77.0983 55.497 79.0416 53.759L 79.1779 53.6892C 80.1022 56.2748 79.0339 59.1144 76.6339 60.4894Z"
        fill="#fff" id="Vector" />
    </g>
</svg>
