<svg width="73" height="80" viewBox="0 0 73 80" xmlns="http://www.w3.org/2000/svg">
    <g id="Canvas" fill="none">
        <g id="webpack">
            <path d="M 69.8921 61.6508L 37.4794 80L 37.4794 65.7079L 57.6444 54.6032L 69.8921 61.6508ZM 72.1143 59.6444L 72.1143 21.3016L 60.254 28.1587L 60.254 52.8L 72.1079 59.6381L 72.1143 59.6444ZM 2.22222 61.6508L 34.6032 79.9873L 34.6032 65.7079L 14.4317 54.6032L 2.22222 61.6508ZM 2.42203e-08 59.6444L 2.42203e-08 21.3016L 11.8603 28.1587L 11.8603 52.8L 2.42203e-08 59.6444ZM 1.39048 18.819L 34.6349 0L 34.6349 13.8159L 13.3333 25.5302L 13.1619 25.6254L 1.39048 18.819ZM 70.7111 18.819L 37.4794 0L 37.4794 13.8159L 58.781 25.5238L 58.9524 25.619L 70.7238 18.819L 70.7111 18.819Z"
            fill="#fff" id="Vector" />
            <path d="M 19.9302 46.1651L 5.32847e-07 35.2L 5.32847e-07 13.4984L 19.9302 24.9778L 19.9302 46.1651ZM 22.7746 46.1651L 42.7048 35.2127L 42.7048 13.4984L 22.7746 24.9778L 22.7746 46.1651ZM 1.35238 11.0095L 21.3524 -9.68812e-08L 41.3524 11.0095L 21.3524 22.5397L 1.35238 11.0095Z"
            transform="translate(14.705 16.292)" fill="#fff" id="Vector_2" />
        </g>
    </g>
</svg>
