<svg width="80" height="80" viewBox="0 0 80 80" version="1.1" xmlns="http://www.w3.org/2000/svg" xmlns:xlink="http://www.w3.org/1999/xlink">
<g id="Canvas" fill="none">
<g id="icons2">
<g id="wp">
<g id="Vector">
<path fill-rule="evenodd" clip-rule="evenodd" d="M 39.9348 80C 61.9375 79.9666 79.749 62.0685 79.749 39.9907C 79.749 18.2717 62.0197 0.384524 40.8387 0.00641728C 18.594 -0.390305 0.00577925 17.6599 1.73635e-06 39.5484C -0.00641772 62.0672 17.7254 80.0321 39.9348 80ZM 39.87 1.94317C 60.9945 1.93611 77.8257 19.0992 77.8193 40.6397C 77.8122 60.9759 60.5349 77.9881 39.8854 77.9926C 18.8482 77.9971 1.93033 60.9406 1.93098 39.7275C 1.93226 19.0613 19.1133 1.95023 39.87 1.94317ZM 23.9266 22.0143C 24.272 23.1653 23.3052 23.5658 22.2775 23.6461C 21.1958 23.7295 20.1147 23.8111 18.8591 23.9067C 23.0035 36.2539 27.0856 48.4181 31.2647 60.8655C 31.5626 60.3782 31.6852 60.2409 31.7391 60.0804C 34.0334 53.2231 36.3406 46.3703 38.5765 39.4938C 38.7806 38.8666 38.6792 38.0359 38.4558 37.3914C 37.2727 33.9763 35.8553 30.6356 34.8179 27.1794C 34.1085 24.8131 33.1674 23.2821 30.3705 23.5562C 29.8941 23.6031 29.3125 22.5779 28.7791 22.0483C 29.4242 21.6631 30.0649 20.9544 30.7158 20.9448C 36.4112 20.8581 42.1085 20.8581 47.8032 20.9499C 48.4567 20.9608 49.0973 21.6881 49.7425 22.0829C 49.1776 22.5991 48.6903 23.3733 48.0298 23.5729C 46.9699 23.8926 45.7945 23.8322 44.526 23.9452C 48.6749 36.2866 52.7384 48.3758 56.947 60.8956C 58.8286 54.6457 60.5792 48.9067 62.2816 43.1529C 63.8005 38.0167 62.8953 33.2201 60.1491 28.6963C 59.3235 27.336 58.3092 26.0161 57.8413 24.5326C 57.3097 22.8449 56.8681 20.9236 57.1499 19.2308C 57.6281 16.3619 59.8294 14.9374 62.808 14.6646C 46.5077 -0.463486 20.8928 4.95197 11.4542 21.389C 15.0877 21.2215 18.5567 21.0013 22.0284 20.9538C 22.6845 20.9454 23.7725 21.5001 23.9266 22.0143ZM 30.4212 72.0674C 30.3454 72.2889 30.3409 72.5354 30.2812 72.9032C 37.3061 74.8509 44.1954 74.7103 51.2466 72.3345L 40.4747 42.8306C 37.0275 52.8521 33.7214 62.4581 30.4212 72.0674ZM 24.9929 70.7335L 8.76385 26.2145C 1.44245 40.5158 7.01198 62.3355 24.9929 70.7335ZM 74.0555 42.1271C 74.5704 35.3648 72.2376 26.002 70.2231 24.7143C 69.9984 27.2018 70.1551 29.9692 69.4412 32.4908C 67.7613 38.432 65.707 44.2699 63.7286 50.1238C 61.578 56.4868 59.3428 62.8208 57.1441 69.1678C 67.4743 63.0442 73.151 54.0063 74.0555 42.1271Z" fill="white"/>
</g>
</g>
</g>
</g>
</svg>

